<svg xmlns="http://www.w3.org/2000/svg" xmlns:xlink="http://www.w3.org/1999/xlink" width="500" zoomAndPan="magnify" viewBox="0 0 375 374.999991" height="500" preserveAspectRatio="xMidYMid meet" version="1.0"><defs><g/></defs><g fill="#ffffff" fill-opacity="0.302"><g transform="translate(41.121273, 352.322895)"><g><path d="M 10.921875 0 L 10.921875 -21.015625 L 110.953125 -152.546875 L 19.328125 -273.15625 L 19.328125 -294.171875 L 89.9375 -294.171875 L 156.328125 -201.71875 L 163.484375 -201.71875 L 230.296875 -294.171875 L 298.375 -294.171875 L 298.375 -273.15625 L 206.765625 -152.546875 L 306.78125 -21.015625 L 306.78125 0 L 236.59375 0 L 161.375 -104.21875 L 154.234375 -104.21875 L 79.421875 0 Z M 10.921875 0 "/></g></g></g><g fill="#ffffff" fill-opacity="0.502"><g transform="translate(34.753735, 340.835548)"><g><path d="M 10.921875 0 L 10.921875 -21.015625 L 110.953125 -152.546875 L 19.328125 -273.15625 L 19.328125 -294.171875 L 89.9375 -294.171875 L 156.328125 -201.71875 L 163.484375 -201.71875 L 230.296875 -294.171875 L 298.375 -294.171875 L 298.375 -273.15625 L 206.765625 -152.546875 L 306.78125 -21.015625 L 306.78125 0 L 236.59375 0 L 161.375 -104.21875 L 154.234375 -104.21875 L 79.421875 0 Z M 10.921875 0 "/></g></g></g><g fill="#ffcc70" fill-opacity="1"><g transform="translate(28.386197, 329.348206)"><g><path d="M 10.921875 0 L 10.921875 -21.015625 L 110.953125 -152.546875 L 19.328125 -273.15625 L 19.328125 -294.171875 L 89.9375 -294.171875 L 156.328125 -201.71875 L 163.484375 -201.71875 L 230.296875 -294.171875 L 298.375 -294.171875 L 298.375 -273.15625 L 206.765625 -152.546875 L 306.78125 -21.015625 L 306.78125 0 L 236.59375 0 L 161.375 -104.21875 L 154.234375 -104.21875 L 79.421875 0 Z M 10.921875 0 "/></g></g></g></svg>